# xmcd
#
# Track frame offsets: 
#        150
#        18090
#        34233
#        49978
#        65239
#        81503
#        95011
#        112242
#        130305
#        144463
#        160121
#        178948
#        193337
#
# Disc length: 2837 seconds
#
# Revision: 0
# Processed by: cddbd v1.5.2PL0 Copyright (c) Steve Scherf et al.
# Submitted via: ExactAudioCopy v0.99pb4
#
DISCID=c80b130d
DTITLE=Fat Joe - The Elephant In The Room 
DYEAR=2008
DGENRE=Hip-Hop
TTITLE0=The Fugitive
TTITLE1=Ain't Sayin Nothin' (feat. Plies and Dre)
TTITLE2=The Crackhouse (feat. Lil Wayne)
TTITLE3=Cocababy (feat. Jackie Rubia)
TTITLE4=Get It For Life (feat. Poo Bear)
TTITLE5=Drop (feat. Swizz Beatz and Jackie Rubio)
TTITLE6=I Won't Tell (feat. J Holiday)
TTITLE7=K.A.R.
TTITLE8=300 Brolic (feat. Opera Steve)
TTITLE9=Preacher On A Sunday Morning (feat. Poo Bear)
TTITLE10=My Conscience (feat. KRS-One)
TTITLE11=That White
TTITLE12=Whatchu Got (feat. Rick Ross and OZ) (JP Bouns Track)
EXTD=
EXTT0=
EXTT1=
EXTT2=
EXTT3=
EXTT4=
EXTT5=
EXTT6=
EXTT7=
EXTT8=
EXTT9=
EXTT10=
EXTT11=
EXTT12=
PLAYORDER=
